#N canvas 993 151 531 506 10;
#X obj 54 394 tgl 50 0 empty empty success 17 -7 0 10 -258113 -1 -1
1 1;
#X msg 144 244 clearScene;
#X floatatom 141 74 5 0 0 0 - - -;
#X floatatom 180 74 5 0 0 0 - - -;
#X floatatom 219 74 5 0 0 0 - - -;
#X text 23 -36 [spatosc] Creates a spatosc audio scene and allows one
to create sound source nodes and listeners in a 3D virtual audio environment.
;
#X text 27 5 The spatosc library wraps audio spatialization engines
and controls them using the Open Sound Control protocol.;
#N canvas 0 22 290 211 pack3f 0;
#X obj 79 103 pack f f f;
#X obj 99 73 t b f;
#X obj 144 71 t b f;
#X obj 63 44 inlet;
#X obj 110 41 inlet;
#X obj 162 45 inlet;
#X obj 80 137 outlet;
#X connect 0 0 6 0;
#X connect 1 0 0 0;
#X connect 1 1 0 1;
#X connect 2 0 0 0;
#X connect 2 1 0 2;
#X connect 3 0 0 0;
#X connect 4 0 1 0;
#X connect 5 0 2 0;
#X restore 141 94 pd pack3f;
#X obj 54 362 spatosc;
#X floatatom 144 173 5 0 0 0 - - -;
#X floatatom 182 172 5 0 0 0 - - -;
#X floatatom 221 172 5 0 0 0 - - -;
#N canvas 0 22 290 211 pack3f 0;
#X obj 79 103 pack f f f;
#X obj 99 73 t b f;
#X obj 144 71 t b f;
#X obj 63 44 inlet;
#X obj 110 41 inlet;
#X obj 162 45 inlet;
#X obj 80 137 outlet;
#X connect 0 0 6 0;
#X connect 1 0 0 0;
#X connect 1 1 0 1;
#X connect 2 0 0 0;
#X connect 2 1 0 2;
#X connect 3 0 0 0;
#X connect 4 0 1 0;
#X connect 5 0 2 0;
#X restore 143 192 pd pack3f;
#X msg 141 114 setPosition noise \$1 \$2 \$3;
#X text 263 47 <-- Create a sound source;
#X text 288 151 <-- Create a listener;
#X text 238 245 <-- Clear the whole scene;
#X msg 141 48 createSource noise;
#X msg 140 149 createListener listener;
#X msg 143 213 setPosition listener \$1 \$2 \$3;
#X obj 130 290 loadbang;
#X msg 129 313 addTranslator basic BasicTranslator localhost 10001
;
#X connect 1 0 8 0;
#X connect 2 0 7 0;
#X connect 3 0 7 1;
#X connect 4 0 7 2;
#X connect 7 0 13 0;
#X connect 8 0 0 0;
#X connect 9 0 12 0;
#X connect 10 0 12 1;
#X connect 11 0 12 2;
#X connect 12 0 19 0;
#X connect 13 0 8 0;
#X connect 17 0 8 0;
#X connect 18 0 8 0;
#X connect 19 0 8 0;
#X connect 20 0 21 0;
#X connect 21 0 8 0;
