#N canvas 997 175 531 506 10;
#X obj 41 272 tgl 50 0 empty empty success 17 -7 0 10 -258113 -1 -1
1 1;
#X floatatom 104 91 5 0 0 0 - - -;
#X floatatom 143 91 5 0 0 0 - - -;
#X floatatom 182 91 5 0 0 0 - - -;
#N canvas 0 22 290 211 pack3f 0;
#X obj 79 103 pack f f f;
#X obj 99 73 t b f;
#X obj 144 71 t b f;
#X obj 63 44 inlet;
#X obj 110 41 inlet;
#X obj 162 45 inlet;
#X obj 80 137 outlet;
#X connect 0 0 6 0;
#X connect 1 0 0 0;
#X connect 1 1 0 1;
#X connect 2 0 0 0;
#X connect 2 1 0 2;
#X connect 3 0 0 0;
#X connect 4 0 1 0;
#X connect 5 0 2 0;
#X restore 104 111 pd pack3f;
#X obj 41 240 spatosc;
#X msg 104 131 setPosition noise \$1 \$2 \$3;
#X msg 149 244 createSource noise;
#X msg 144 266 createListener listener;
#X obj 117 168 loadbang;
#X msg 116 191 addTranslator basic BasicTranslator localhost 10001
;
#X obj 145 223 del 500;
#X connect 1 0 4 0;
#X connect 2 0 4 1;
#X connect 3 0 4 2;
#X connect 4 0 6 0;
#X connect 5 0 0 0;
#X connect 6 0 5 0;
#X connect 7 0 5 0;
#X connect 8 0 5 0;
#X connect 9 0 10 0;
#X connect 9 0 11 0;
#X connect 10 0 5 0;
#X connect 11 0 7 0;
#X connect 11 0 8 0;
