#N canvas 133 327 469 459 10;
#X obj 54 339 tgl 50 0 empty empty success 17 -7 0 10 -258113 -1 -1
1 1;
#X obj 54 307 spatosc;
#X msg 162 311 createSource noise;
#X msg 157 333 createListener listener;
#X obj 130 235 loadbang;
#X msg 129 258 addTranslator basic BasicTranslator localhost 10001
;
#X obj 158 290 del 5;
#X floatatom 41 171 8 0 0 0 - - -;
#X floatatom 93 172 5 0 0 0 - - -;
#X floatatom 132 172 5 0 0 0 - - -;
#N canvas 0 22 290 211 pack3f 0;
#X obj 79 103 pack f f f;
#X obj 99 73 t b f;
#X obj 144 71 t b f;
#X obj 63 44 inlet;
#X obj 110 41 inlet;
#X obj 162 45 inlet;
#X obj 80 137 outlet;
#X connect 0 0 6 0;
#X connect 1 0 0 0;
#X connect 1 1 0 1;
#X connect 2 0 0 0;
#X connect 2 1 0 2;
#X connect 3 0 0 0;
#X connect 4 0 1 0;
#X connect 5 0 2 0;
#X restore 54 192 pd pack3f;
#X msg 54 212 setPositionAED noise \$1 \$2 \$3;
#X obj 34 141 hsl 128 15 -10 10 0 0 empty empty empty -2 -8 0 10 -260097
-1 -1 6350 1;
#X obj 167 26 vsl 15 128 -10 10 0 0 empty empty empty 0 -9 0 10 -260097
-1 -1 6350 1;
#X obj 185 27 vsl 15 128 -10 10 0 0 empty empty empty 0 -9 0 10 -260097
-1 -1 6350 1;
#X obj 146 -51 loadbang;
#X msg 150 -6 0;
#X obj 146 -27 del 10;
#X connect 1 0 0 0;
#X connect 2 0 1 0;
#X connect 3 0 1 0;
#X connect 4 0 5 0;
#X connect 4 0 6 0;
#X connect 5 0 1 0;
#X connect 6 0 2 0;
#X connect 6 0 3 0;
#X connect 7 0 10 0;
#X connect 8 0 10 1;
#X connect 9 0 10 2;
#X connect 10 0 11 0;
#X connect 11 0 1 0;
#X connect 12 0 7 0;
#X connect 13 0 8 0;
#X connect 14 0 9 0;
#X connect 15 0 17 0;
#X connect 16 0 13 0;
#X connect 16 0 14 0;
#X connect 16 0 12 0;
#X connect 17 0 16 0;
