#N canvas 373 119 827 502 10;
#X obj 54 339 tgl 50 0 empty empty success 17 -7 0 10 -258113 -1 -1
1 1;
#X obj 402 41 loadbang;
#X obj 281 246 del 5;
#X floatatom 41 171 8 0 0 0 - - -;
#X floatatom 93 172 5 0 0 0 - - -;
#X floatatom 132 172 5 0 0 0 - - -;
#N canvas 0 22 290 211 pack3f 0;
#X obj 79 103 pack f f f;
#X obj 99 73 t b f;
#X obj 144 71 t b f;
#X obj 63 44 inlet;
#X obj 110 41 inlet;
#X obj 162 45 inlet;
#X obj 80 137 outlet;
#X connect 0 0 6 0;
#X connect 1 0 0 0;
#X connect 1 1 0 1;
#X connect 2 0 0 0;
#X connect 2 1 0 2;
#X connect 3 0 0 0;
#X connect 4 0 1 0;
#X connect 5 0 2 0;
#X restore 54 192 pd pack3f;
#X obj 25 142 hsl 128 15 -3.14159 3.14159 0 0 empty empty empty -2
-8 0 10 -260097 -1 -1 0 1;
#X obj 207 23 vsl 15 128 -3.14159 3.14159 0 0 empty empty empty 0 -9
0 10 -260097 -1 -1 0 1;
#X obj 231 3 vsl 15 128 0 10 0 0 empty empty empty 0 -9 0 10 -260097
-1 -1 0 1;
#X obj 23 -43 loadbang;
#X msg 23 -5 0;
#X obj 23 -24 del 10;
#X text 177 153 <-- angle from -PI to PI;
#X text 255 123 <--distance must be > 0;
#X text 236 138 <-- elevation from -PI to PI;
#X obj 288 204 t b b;
#X msg 236 424 clearScene;
#X msg 232 401 forceRefresh;
#X text 319 405 TODO;
#X text 315 426 TODO;
#X msg 54 212 setPositionAED source0 \$1 \$2 \$3;
#X msg 297 268 createSource source0;
#X msg 297 288 createListener listener0;
#X msg 475 301 setNodeStringProperty source0 uri adc://0;
#X msg 474 324 setNodeStringProperty source0 uri pyo://Noise;
#X msg 231 -22 1;
#X obj 288 169 bng 30 250 50 0 empty empty empty 17 7 0 10 -191407
-1 -1;
#X msg 475 347 setNodeStringProperty source0 uri file:///usr/share/sounds/alsa/Noise.wav
;
#X msg 479 383 setNodeStringProperty source0 uri file:///usr/share/sounds/alsa/Rear_Left.wav
;
#X msg 484 273 setNodeStringProperty source0 uri adc://1;
#X obj 53 307 spatosc;
#X msg 530 55 setSpread listener0 prop 1;
#X msg 484 133 setNodeStringProperty source0 uri pyo://Chorus;
#X msg 483 180 setNodeStringProperty source0 freq 440;
#X msg 484 157 setNodeStringProperty source0 uri pyo://Sine;
#X text 490 115 Chorus is not a generator so it will fail;
#X text 721 182 TODO;
#X msg 372 224 addTranslator basic BasicTranslator osc.udp://localhost:10001
;
#X text 404 60 crash?;
#X connect 2 0 22 0;
#X connect 2 0 23 0;
#X connect 3 0 6 0;
#X connect 4 0 6 1;
#X connect 5 0 6 2;
#X connect 6 0 21 0;
#X connect 7 0 3 0;
#X connect 8 0 4 0;
#X connect 9 0 5 0;
#X connect 10 0 12 0;
#X connect 11 0 8 0;
#X connect 11 0 7 0;
#X connect 12 0 11 0;
#X connect 12 0 26 0;
#X connect 16 0 38 0;
#X connect 16 1 2 0;
#X connect 17 0 31 0;
#X connect 18 0 31 0;
#X connect 21 0 31 0;
#X connect 22 0 31 0;
#X connect 23 0 31 0;
#X connect 24 0 31 0;
#X connect 25 0 31 0;
#X connect 26 0 9 0;
#X connect 27 0 16 0;
#X connect 28 0 31 0;
#X connect 29 0 31 0;
#X connect 30 0 31 0;
#X connect 31 0 0 0;
#X connect 32 0 31 0;
#X connect 33 0 31 0;
#X connect 34 0 31 0;
#X connect 35 0 31 0;
#X connect 38 0 31 0;
