#N canvas 997 175 531 506 10;
#X obj 66 385 tgl 50 0 empty empty success 17 -7 0 10 -258113 -1 -1
1 1;
#X floatatom 129 204 5 0 0 0 - - -;
#X floatatom 168 204 5 0 0 0 - - -;
#X floatatom 207 204 5 0 0 0 - - -;
#N canvas 0 22 290 211 pack3f 0;
#X obj 79 103 pack f f f;
#X obj 99 73 t b f;
#X obj 144 71 t b f;
#X obj 63 44 inlet;
#X obj 110 41 inlet;
#X obj 162 45 inlet;
#X obj 80 137 outlet;
#X connect 0 0 6 0;
#X connect 1 0 0 0;
#X connect 1 1 0 1;
#X connect 2 0 0 0;
#X connect 2 1 0 2;
#X connect 3 0 0 0;
#X connect 4 0 1 0;
#X connect 5 0 2 0;
#X restore 129 224 pd pack3f;
#X obj 66 353 spatosc;
#X msg 129 244 setPosition noise \$1 \$2 \$3;
#X msg 174 357 createSource noise;
#X msg 169 379 createListener listener;
#X obj 142 281 loadbang;
#X msg 141 304 addTranslator basic BasicTranslator localhost 10001
;
#X obj 170 336 del 500;
#N canvas 8 73 577 518 aed_to_xyz 0;
#X obj 105 23 inlet;
#X obj 170 12 inlet;
#X obj 265 34 inlet;
#X obj 106 401 outlet;
#X obj 222 401 outlet;
#X obj 311 405 outlet;
#N canvas 0 22 290 211 pack3f 0;
#X obj 79 103 pack f f f;
#X obj 99 73 t b f;
#X obj 144 71 t b f;
#X obj 63 44 inlet;
#X obj 110 41 inlet;
#X obj 162 45 inlet;
#X obj 80 137 outlet;
#X connect 0 0 6 0;
#X connect 1 0 0 0;
#X connect 1 1 0 1;
#X connect 2 0 0 0;
#X connect 2 1 0 2;
#X connect 3 0 0 0;
#X connect 4 0 1 0;
#X connect 5 0 2 0;
#X restore 113 115 pd pack3f;
#X obj 165 262 cos;
#X obj 103 263 sin;
#X obj 113 164 unpack f f f;
#X obj 339 247 cos;
#X obj 110 323 *;
#X obj 108 348 *;
#X obj 224 319 sin;
#X obj 185 322 *;
#X obj 183 347 *;
#X obj 346 284 *;
#X obj 99 56 * 0.0174533;
#X obj 167 75 * 0.0174533;
#X connect 0 0 17 0;
#X connect 1 0 18 0;
#X connect 2 0 6 2;
#X connect 6 0 9 0;
#X connect 7 0 11 1;
#X connect 8 0 11 0;
#X connect 8 0 14 0;
#X connect 9 0 8 0;
#X connect 9 1 10 0;
#X connect 9 1 13 0;
#X connect 9 1 7 0;
#X connect 9 2 12 1;
#X connect 9 2 15 1;
#X connect 9 2 16 1;
#X connect 10 0 16 0;
#X connect 11 0 12 0;
#X connect 12 0 3 0;
#X connect 13 0 14 1;
#X connect 14 0 15 0;
#X connect 15 0 4 0;
#X connect 16 0 5 0;
#X connect 17 0 6 0;
#X connect 18 0 6 1;
#X restore 127 172 pd aed_to_xyz;
#X floatatom 112 143 5 0 0 0 - - -;
#X floatatom 152 144 5 0 0 0 - - -;
#X obj 212 101 loadbang;
#X msg 212 122 1;
#X obj 45 91 hsl 128 15 0 360 0 0 empty empty empty -2 -8 0 10 -260097
-1 -1 11700 1;
#X obj 181 -23 vsl 15 128 -180 180 0 0 empty empty empty 0 -9 0 10
-260097 -1 -1 0 1;
#X obj 229 156 nbx 5 14 -1e+37 1e+37 0 0 empty empty meters 0 -8 0
10 -260097 -1 -1 1 256;
#X connect 1 0 4 0;
#X connect 2 0 4 1;
#X connect 3 0 4 2;
#X connect 4 0 6 0;
#X connect 5 0 0 0;
#X connect 6 0 5 0;
#X connect 7 0 5 0;
#X connect 8 0 5 0;
#X connect 9 0 10 0;
#X connect 9 0 11 0;
#X connect 10 0 5 0;
#X connect 11 0 7 0;
#X connect 11 0 8 0;
#X connect 12 0 1 0;
#X connect 12 1 2 0;
#X connect 12 2 3 0;
#X connect 13 0 12 0;
#X connect 14 0 12 1;
#X connect 15 0 16 0;
#X connect 16 0 19 0;
#X connect 17 0 13 0;
#X connect 18 0 14 0;
#X connect 19 0 12 2;
