#N canvas 899 64 948 906 10;
#X obj 363 279 cnv 15 400 430 empty empty empty 20 12 0 14 -233017
-66577 0;
#X obj 58 281 cnv 15 300 300 empty empty empty 20 12 0 14 -233017 -66577
0;
#X obj 362 714 cnv 15 300 150 empty empty empty 20 12 0 14 -233017
-66577 0;
#X obj 43 699 s \$0-to-SPIN;
#N canvas 1058 96 372 319 ViewControl 0;
#X obj 10 10 inlet;
#X text 126 36 list: x y z p r y;
#X msg 8 256 createNode grid GridNode;
#X obj 8 278 s \$0-to-SPIN;
#X obj 16 61 subwidget-ViewCtl \$0;
#X msg 16 36 0 -12 3 -16 0 0;
#X connect 0 0 5 0;
#X connect 0 0 2 0;
#X connect 2 0 3 0;
#X connect 5 0 4 0;
#X restore 761 107 pd ViewControl;
#X obj 761 87 bng 15 250 50 0 empty empty empty 17 7 0 10 -262144 -1
-1;
#X text 782 84 set view for this example;
#X obj 19 27 widget-spinConnect \$0;
#X msg 72 723 debug spatosc;
#X msg 73 766 debug;
#X msg 72 745 debug nodes;
#X obj 418 7 widget-nodeEditor \$0;
#X text 21 81 Launch via command line:;
#X text 18 115 spinviewer;
#X msg 74 344 createNode snd0 SoundNode;
#X msg 43 205 createNode listener0 Listener;
#X msg 75 367 /snd0 setParam setMediaURI file:///usr/share/sounds/alsa/Rear_Left.wav
;
#X floatatom 214 402 0 0 0 0 - - -;
#X msg 77 401 /snd0 setParam mul \$1;
#X obj 219 485 tgl 15 0 empty empty empty 17 7 0 10 -262144 -1 -1 0
1;
#X msg 76 485 /snd0 setParam loop \$1;
#X msg 78 528 deleteNode snd0;
#X obj 9 191 cnv 15 24 24 empty empty 1 4 12 1 24 -99865 -262144 0
;
#X obj 364 281 cnv 15 24 24 empty empty 3 4 12 1 24 -99865 -262144
0;
#X obj 58 282 cnv 15 24 24 empty empty 2 4 12 1 24 -99865 -262144 0
;
#X msg 366 736 createNode addsynth SoundNode;
#X msg 366 757 /addsynth setParam setMediaURI plugin://AddSynth;
#X msg 373 326 /pluck setParam setMediaURI plugin://PluckedString;
#X msg 469 473 /pluck setParam play 1;
#X msg 385 371 /pluck setParam freq \$1;
#X floatatom 542 369 5 0 0 0 - - -;
#X msg 391 393 /pluck setParam dur \$1;
#X floatatom 535 394 5 0 0 0 - - -;
#X floatatom 578 415 5 0 0 0 - - -;
#X msg 399 414 /pluck setParam deviation \$1;
#X obj 469 435 tgl 15 0 empty empty empty 17 7 0 10 -262144 -1 -1 0
1;
#X obj 469 453 metro 300;
#X msg 399 523 createNode spinner GroupNode;
#X msg 412 662 /spinner setSpin 0 0 \$1;
#X floatatom 412 642 5 0 0 1 (deg/sec) - -;
#X msg 411 619 50;
#X msg 441 619 0;
#X text 412 541 Offset the sound by 4m along the y-axis so that it
appears to orbit around the spinner:;
#X text 473 619 <- set the spinner speed;
#X msg 403 573 /pluck setParent spinner \, /snd setTranslation 0 4
0;
#X msg 379 347 /pluck setParam spread \$1;
#X floatatom 539 346 5 0 0 0 - - -;
#X text 18 93 spinserver --spatosc BasicTranslator osc.udp://localhost:18032
;
#X floatatom 532 808 0 0 0 0 - - -;
#X msg 366 808 /addsynth setParam freq \$1;
#X msg 77 464 /snd0 setParam speed \$1;
#X floatatom 224 465 5 0 0 0 - - -;
#X msg 77 423 /snd0 setParam play 1;
#X msg 77 444 /snd0 setParam stop 1;
#X obj 362 842 s \$0-to-SPIN;
#X msg 367 306 createNode pluck SoundNode;
#X obj 368 685 s \$0-to-SPIN;
#X text 778 276 Other plugins:;
#X text 779 293 pyo://Input;
#X text 779 320 plugin://AddSynth;
#X text 779 307 pyo://Sine;
#X text 779 335 plugin://Sine2;
#X text 779 345 plugin://blep;
#X text 90 297 soundfile playback;
#X text 239 486 looping;
#X text 261 464 playback speed;
#X text 239 403 volume (0..1);
#X text 414 282 Pluck example (with optional spin through multichannel)
;
#X text 388 712 simple additive synth (FIXME);
#X msg 367 778 /addsynth setTranslation -0.2 0.5 0.7;
#X connect 5 0 4 0;
#X connect 8 0 3 0;
#X connect 9 0 3 0;
#X connect 10 0 3 0;
#X connect 14 0 3 0;
#X connect 15 0 3 0;
#X connect 16 0 3 0;
#X connect 17 0 18 0;
#X connect 18 0 3 0;
#X connect 19 0 20 0;
#X connect 20 0 3 0;
#X connect 21 0 3 0;
#X connect 25 0 54 0;
#X connect 26 0 54 0;
#X connect 27 0 56 0;
#X connect 28 0 56 0;
#X connect 29 0 56 0;
#X connect 30 0 29 0;
#X connect 31 0 56 0;
#X connect 32 0 31 0;
#X connect 33 0 34 0;
#X connect 34 0 56 0;
#X connect 35 0 36 0;
#X connect 36 0 28 0;
#X connect 37 0 56 0;
#X connect 38 0 56 0;
#X connect 39 0 38 0;
#X connect 40 0 39 0;
#X connect 41 0 39 0;
#X connect 44 0 56 0;
#X connect 45 0 56 0;
#X connect 46 0 45 0;
#X connect 48 0 49 0;
#X connect 49 0 54 0;
#X connect 50 0 3 0;
#X connect 51 0 50 0;
#X connect 52 0 3 0;
#X connect 53 0 3 0;
#X connect 55 0 56 0;
#X connect 69 0 54 0;
