#N canvas 942 171 948 906 10;
#X obj 363 279 cnv 15 400 430 empty empty empty 20 12 0 14 -233017
-66577 0;
#X obj 58 281 cnv 15 300 320 empty empty empty 20 12 0 14 -233017 -66577
0;
#X obj 362 714 cnv 15 300 150 empty empty empty 20 12 0 14 -233017
-66577 0;
#X obj 43 699 s \$0-to-SPIN;
#N canvas 1058 96 372 319 ViewControl 0;
#X obj 10 10 inlet;
#X text 126 36 list: x y z p r y;
#X msg 8 256 createNode grid GridNode;
#X obj 8 278 s \$0-to-SPIN;
#X obj 16 61 subwidget-ViewCtl \$0;
#X msg 16 36 0 -12 3 -16 0 0;
#X connect 0 0 5 0;
#X connect 0 0 2 0;
#X connect 2 0 3 0;
#X connect 5 0 4 0;
#X restore 761 107 pd ViewControl;
#X obj 761 87 bng 15 250 50 0 empty empty empty 17 7 0 10 -262144 -1
-1;
#X text 782 84 set view for this example;
#X obj 19 27 widget-spinConnect \$0;
#X msg 72 723 debug spatosc;
#X msg 73 766 debug;
#X msg 72 745 debug nodes;
#X obj 418 7 widget-nodeEditor \$0;
#X text 21 81 Launch via command line:;
#X text 18 115 spinviewer;
#X msg 65 321 createNode snd0 SoundNode;
#X msg 43 205 createNode listener0 Listener;
#X floatatom 214 423 0 0 0 0 - - -;
#X msg 77 422 /snd0 setParam mul \$1;
#X obj 219 506 tgl 15 0 empty empty empty 17 7 0 10 -262144 -1 -1 0
1;
#X msg 76 506 /snd0 setParam loop \$1;
#X msg 78 549 deleteNode snd0;
#X obj 9 191 cnv 15 24 24 empty empty 1 4 12 1 24 -99865 -262144 0
;
#X obj 364 281 cnv 15 24 24 empty empty 3 4 12 1 24 -99865 -262144
0;
#X obj 58 282 cnv 15 24 24 empty empty 2 4 12 1 24 -99865 -262144 0
;
#X msg 366 736 createNode addsynth SoundNode;
#X msg 366 757 /addsynth setParam setMediaURI plugin://AddSynth;
#X msg 373 326 /pluck setParam setMediaURI plugin://PluckedString;
#X msg 469 473 /pluck setParam play 1;
#X msg 385 371 /pluck setParam freq \$1;
#X floatatom 542 369 5 0 0 0 - - -;
#X msg 391 393 /pluck setParam dur \$1;
#X floatatom 535 394 5 0 0 0 - - -;
#X floatatom 578 415 5 0 0 0 - - -;
#X msg 399 414 /pluck setParam deviation \$1;
#X obj 469 435 tgl 15 0 empty empty empty 17 7 0 10 -262144 -1 -1 0
1;
#X obj 469 453 metro 300;
#X msg 399 523 createNode spinner GroupNode;
#X msg 412 662 /spinner setSpin 0 0 \$1;
#X floatatom 412 642 5 0 0 1 (deg/sec) - -;
#X msg 411 619 50;
#X msg 441 619 0;
#X text 412 541 Offset the sound by 4m along the y-axis so that it
appears to orbit around the spinner:;
#X text 473 619 <- set the spinner speed;
#X msg 379 347 /pluck setParam spread \$1;
#X floatatom 539 346 5 0 0 0 - - -;
#X text 18 93 spinserver --spatosc BasicTranslator osc.udp://localhost:18032
;
#X floatatom 532 808 0 0 0 0 - - -;
#X msg 366 808 /addsynth setParam freq \$1;
#X msg 77 485 /snd0 setParam speed \$1;
#X floatatom 224 486 5 0 0 0 - - -;
#X msg 77 444 /snd0 setParam play 1;
#X msg 77 465 /snd0 setParam stop 1;
#X obj 362 842 s \$0-to-SPIN;
#X msg 367 306 createNode pluck SoundNode;
#X obj 368 685 s \$0-to-SPIN;
#X text 778 276 Other plugins:;
#X text 779 293 pyo://Input;
#X text 779 320 plugin://AddSynth;
#X text 779 307 pyo://Sine;
#X text 90 297 soundfile playback;
#X text 239 507 looping;
#X text 261 485 playback speed;
#X text 239 424 volume (0..1);
#X text 414 282 Pluck example (with optional spin through multichannel)
;
#X text 388 712 simple additive synth (FIXME);
#X msg 367 778 /addsynth setTranslation -0.2 0.5 0.7;
#X msg 403 573 /pluck setParent spinner \, /pluck setTranslation 0
4 0;
#X text 779 335 plugin://SimpleSin;
#X msg 66 671 clear;
#N canvas 121 85 785 475 PulsarSynth 0;
#X floatatom -5 101 0 0 0 0 - - -;
#X obj 34 437 s \$0-to-SPIN;
#X msg 32 27 createNode pulsar SoundNode;
#X msg 33 69 /pulsar setTranslation -0.2 0.5 0.7;
#X msg 32 48 /pulsar setParam setMediaURI plugin://PulsarSampler;
#X msg 142 390 /pulsar setParam play 1;
#X msg 29 101 /pulsar setParam freq \$1;
#X floatatom -2 128 0 0 0 0 - - -;
#X msg 41 129 /pulsar setParam lfo_freq \$1;
#X floatatom 8 158 0 0 0 0 - - -;
#X floatatom 8 188 0 0 0 0 - - -;
#X msg 51 159 /pulsar setParam lfo_mul \$1;
#X msg 51 189 /pulsar setParam lfo_add \$1;
#X msg 250 275 /pulsar setParam path \$1;
#X obj 246 225 bng 15 250 50 0 empty empty empty 17 7 0 10 -262144
-1 -1;
#X obj 246 245 openpanel;
#X msg 152 410 /pulsar setParam stop 1;
#X text 268 219 set a file to pulsarate;
#X text 371 89 see pyo documentation to know what these things mean
;
#X connect 0 0 6 0;
#X connect 2 0 1 0;
#X connect 3 0 1 0;
#X connect 4 0 1 0;
#X connect 5 0 1 0;
#X connect 6 0 1 0;
#X connect 7 0 8 0;
#X connect 8 0 1 0;
#X connect 9 0 11 0;
#X connect 10 0 12 0;
#X connect 11 0 1 0;
#X connect 12 0 1 0;
#X connect 13 0 1 0;
#X connect 14 0 15 0;
#X connect 15 0 13 0;
#X connect 16 0 1 0;
#X restore 781 374 pd PulsarSynth;
#X obj 86 348 bng 15 250 50 0 empty empty empty 17 7 0 10 -262144 -1
-1;
#X obj 85 367 openpanel;
#X msg 69 389 /snd0 setParam setMediaURI file://\$1;
#X obj 181 536 bng 15 250 50 0 empty empty empty 17 7 0 10 -262144
-1 -1;
#X obj 180 555 openpanel;
#X msg 639 781 /addsynth event freq 420 400;
#X msg 521 840 /addsynth setParam mul \$1;
#X floatatom 600 820 5 0 0 0 - - -;
#X msg 659 423 /pluck event freq 200 220 240;
#X msg 180 574 /snd0 setParam path \$1;
#X text 199 536 set a new sound file;
#N canvas 121 84 785 475 MicroLooper 1;
#X floatatom -5 101 0 0 0 0 - - -;
#X obj 34 437 s \$0-to-SPIN;
#X floatatom -2 128 0 0 0 0 - - -;
#X floatatom 8 158 0 0 0 0 - - -;
#X floatatom 8 188 0 0 0 0 - - -;
#X obj 246 225 bng 15 250 50 0 empty empty empty 17 7 0 10 -262144
-1 -1;
#X obj 246 245 openpanel;
#X text 268 219 set a file to pulsarate;
#X text 371 89 see pyo documentation to know what these things mean
;
#X msg 32 27 createNode ml SoundNode;
#X msg 33 68 /ml setTranslation -0.2 0.5 0.7;
#X msg 250 275 /ml setParam path \$1;
#X msg 142 390 /ml setParam play 1;
#X msg 152 410 /ml setParam stop 1;
#X msg 32 48 /ml setParam setMediaURI plugin://MicroLooper;
#X msg 28 101 /ml setParam pitch \$1;
#X msg 40 128 /ml setParam start \$1;
#X msg 51 159 /ml setParam dur \$1;
#X msg 51 189 /ml setParam mul \$1;
#X connect 0 0 15 0;
#X connect 2 0 16 0;
#X connect 3 0 17 0;
#X connect 4 0 18 0;
#X connect 5 0 6 0;
#X connect 6 0 11 0;
#X connect 9 0 1 0;
#X connect 10 0 1 0;
#X connect 11 0 1 0;
#X connect 12 0 1 0;
#X connect 13 0 1 0;
#X connect 14 0 1 0;
#X connect 15 0 1 0;
#X connect 16 0 1 0;
#X connect 17 0 1 0;
#X connect 18 0 1 0;
#X restore 780 394 pd MicroLooper;
#X text 17 130 run pyospat with default OSC port;
#X connect 5 0 4 0;
#X connect 8 0 3 0;
#X connect 9 0 3 0;
#X connect 10 0 3 0;
#X connect 14 0 3 0;
#X connect 15 0 3 0;
#X connect 16 0 17 0;
#X connect 17 0 3 0;
#X connect 18 0 19 0;
#X connect 19 0 3 0;
#X connect 20 0 3 0;
#X connect 24 0 52 0;
#X connect 25 0 52 0;
#X connect 26 0 54 0;
#X connect 27 0 54 0;
#X connect 28 0 54 0;
#X connect 29 0 28 0;
#X connect 30 0 54 0;
#X connect 31 0 30 0;
#X connect 32 0 33 0;
#X connect 33 0 54 0;
#X connect 34 0 35 0;
#X connect 35 0 27 0;
#X connect 36 0 54 0;
#X connect 37 0 54 0;
#X connect 38 0 37 0;
#X connect 39 0 38 0;
#X connect 40 0 38 0;
#X connect 43 0 54 0;
#X connect 44 0 43 0;
#X connect 46 0 47 0;
#X connect 47 0 52 0;
#X connect 48 0 3 0;
#X connect 49 0 48 0;
#X connect 50 0 3 0;
#X connect 51 0 3 0;
#X connect 53 0 54 0;
#X connect 65 0 52 0;
#X connect 66 0 54 0;
#X connect 68 0 3 0;
#X connect 70 0 71 0;
#X connect 71 0 72 0;
#X connect 72 0 3 0;
#X connect 73 0 74 0;
#X connect 74 0 79 0;
#X connect 75 0 52 0;
#X connect 76 0 52 0;
#X connect 77 0 76 0;
#X connect 78 0 54 0;
#X connect 79 0 3 0;
